<?xml version="1.0" encoding="UTF-8"?>
<!DOCTYPE svg PUBLIC "-//W3C//DTD SVG 1.1//EN" "http://www.w3.org/Graphics/SVG/1.1/DTD/svg11.dtd">
<!-- Creator: CorelDRAW X8 -->
<svg xmlns="http://www.w3.org/2000/svg" xml:space="preserve" width="6.51151in" height="8.82935in" version="1.1" style="shape-rendering:geometricPrecision; text-rendering:geometricPrecision; image-rendering:optimizeQuality; fill-rule:evenodd; clip-rule:evenodd"
viewBox="0 0 5974 8100"
 xmlns:xlink="http://www.w3.org/1999/xlink">
 <defs>
  <style type="text/css">
   <![CDATA[
    .fil5 {fill:#FEFEFE}
    .fil2 {fill:#00AFEF}
    .fil7 {fill:#1A1A1A}
    .fil1 {fill:#222222}
    .fil0 {fill:white}
    .fil4 {fill:#FEFEFE;fill-rule:nonzero}
    .fil6 {fill:#1A1A1A;fill-rule:nonzero}
    .fil3 {fill:#222222;fill-rule:nonzero}
   ]]>
  </style>
 </defs>
 <g id="Layer_x0020_1">
  <metadata id="CorelCorpID_0Corel-Layer"/>
  <polygon class="fil0" points="0,0 5974,0 5974,3938 0,3938 "/>
  <polygon class="fil1" points="0,5095 5974,5095 5974,3932 0,3932 "/>
  <polygon class="fil1" points="0,6259 1841,6259 1841,8100 0,8100 "/>
  <polygon class="fil0" points="5974,6259 1841,6259 1841,8100 5974,8100 "/>
  <polygon class="fil2" points="0,6259 5974,6259 5974,5095 0,5095 "/>
  <path class="fil3" d="M2680 2099l0 -275 157 0 0 23 -130 0 0 97 115 0 0 23 -115 0 0 132 -27 0zm1095 -198c8,-2 18,-5 31,-7 13,-3 29,-4 48,-4 15,0 28,2 39,6 10,5 19,11 25,20 6,8 11,18 13,30 3,11 4,24 4,38l0 115 -26 0 0 -107c0,-14 -1,-26 -3,-37 -2,-10 -5,-18 -10,-24 -4,-6 -10,-11 -18,-14 -7,-3 -17,-4 -28,-4 -12,0 -23,1 -32,2 -9,1 -14,3 -17,4l0 180 -26 0 0 -198zm-28 95c0,16 -2,31 -7,44 -4,14 -11,25 -19,34 -9,9 -18,17 -30,22 -11,5 -24,7 -37,7 -14,0 -27,-2 -38,-7 -11,-5 -21,-13 -30,-22 -8,-9 -14,-20 -19,-34 -5,-13 -7,-28 -7,-44 0,-16 2,-30 7,-44 5,-13 11,-24 19,-34 9,-9 19,-16 30,-21 11,-6 24,-8 38,-8 13,0 26,2 37,8 12,5 21,12 30,21 8,10 15,21 19,34 5,14 7,28 7,44zm-27 0c0,-25 -6,-46 -18,-61 -12,-15 -28,-23 -48,-23 -21,0 -37,8 -49,23 -12,15 -18,36 -18,61 0,26 6,46 18,61 12,15 28,23 49,23 20,0 36,-8 48,-23 12,-15 18,-35 18,-61zm-192 103l-26 0 0 -205 26 0 0 205zm6 -267c0,6 -2,11 -6,14 -3,4 -8,6 -13,6 -6,0 -10,-2 -14,-6 -3,-3 -5,-8 -5,-14 0,-6 2,-11 5,-15 4,-3 8,-5 14,-5 5,0 10,2 13,5 4,4 6,9 6,15zm-346 69c7,-2 17,-5 30,-7 12,-3 28,-4 47,-4 26,0 45,7 57,22 1,-1 4,-3 7,-5 4,-3 9,-5 15,-8 6,-2 13,-5 20,-7 8,-1 17,-2 26,-2 16,0 29,2 38,7 10,4 17,11 23,19 5,8 9,18 10,30 2,12 3,24 3,38l0 115 -26 0 0 -107c0,-13 0,-25 -1,-35 -2,-10 -4,-18 -8,-24 -3,-7 -8,-12 -15,-15 -6,-3 -15,-5 -26,-5 -8,0 -15,1 -21,2 -7,2 -12,3 -17,6 -5,2 -9,4 -12,6 -3,2 -5,4 -6,5 2,7 4,14 5,23 1,8 2,18 2,27l0 117 -26 0 0 -107c0,-13 -1,-25 -2,-35 -1,-10 -3,-18 -7,-24 -4,-7 -9,-12 -16,-15 -7,-3 -15,-5 -27,-5 -12,0 -22,1 -31,2 -9,1 -14,3 -17,4l0 180 -25 0 0 -198zm-59 -11c8,0 16,0 24,2 7,1 13,2 15,4l-5 22c-2,-1 -6,-2 -13,-4 -6,-1 -15,-1 -25,-1 -11,0 -20,0 -27,2 -7,2 -11,3 -13,4l0 180 -26 0 0 -196c7,-3 16,-6 27,-9 12,-3 26,-4 43,-4zm-276 106c0,-18 3,-34 8,-47 5,-13 12,-25 20,-34 8,-9 18,-15 29,-20 10,-4 21,-6 33,-6 25,0 45,8 60,24 15,17 22,42 22,76 0,2 0,4 0,7 0,2 0,4 -1,5l-144 0c1,26 8,45 19,58 12,14 30,21 56,21 14,0 25,-2 33,-4 8,-3 14,-5 18,-7l5 22c-4,2 -11,5 -21,8 -10,3 -22,4 -36,4 -18,0 -33,-3 -46,-8 -13,-5 -23,-13 -31,-22 -9,-10 -15,-21 -18,-34 -4,-13 -6,-27 -6,-43zm146 -16c-1,-22 -6,-38 -15,-50 -10,-12 -23,-18 -41,-18 -9,0 -17,2 -25,5 -7,4 -13,9 -19,15 -5,6 -9,14 -12,22 -3,8 -5,17 -6,26l118 0z"/>
  <path class="fil2" d="M2322 1967c0,22 -1,44 -3,64 -18,13 -38,26 -58,38 -19,11 -38,20 -57,29 -20,-9 -40,-19 -59,-30 -19,-11 -37,-23 -53,-34 -3,-22 -4,-44 -4,-66 0,-24 1,-46 4,-68 16,-11 33,-23 52,-34 20,-11 40,-21 60,-30 19,8 38,18 57,29 21,12 40,24 57,37 3,21 4,43 4,65zm-93 -13c8,14 3,31 -11,39 -13,8 -31,3 -39,-10 -8,-14 -3,-32 11,-39 13,-8 31,-4 39,10zm87 97c-4,29 -11,56 -19,79 -24,-6 -49,-14 -75,-24 16,-8 31,-16 47,-25 17,-10 32,-20 47,-30zm17 -31c21,-17 41,-34 57,-51 -16,-19 -35,-38 -58,-56 2,18 3,37 3,56 0,17 -1,35 -2,51zm67 -62c47,-53 67,-106 46,-141 -11,-20 -35,-32 -67,-35 40,1 69,14 83,37 22,37 -1,94 -52,151 35,45 49,88 32,118 -12,21 -39,32 -74,33 28,-3 49,-13 60,-31 16,-28 4,-68 -28,-109 -20,20 -43,40 -69,59 -4,34 -11,66 -20,93 69,14 124,4 144,-30 12,-21 10,-47 -3,-76 19,35 23,67 9,90 -21,37 -81,47 -156,31 -21,53 -51,87 -85,87 -25,0 -48,-17 -66,-47 16,23 36,36 57,36 32,0 60,-31 80,-80 -27,-6 -57,-17 -87,-30 -31,14 -61,24 -89,31 23,67 58,109 98,109 24,0 45,-15 64,-40 -21,33 -46,53 -74,53 -42,0 -80,-47 -103,-119 -74,16 -133,7 -154,-30 -11,-19 -10,-43 0,-70 -6,22 -5,41 4,57 20,34 75,43 145,29 -8,-28 -14,-59 -18,-93 -26,-19 -50,-40 -70,-60 -33,42 -46,83 -29,110 8,14 22,24 42,29 -26,-5 -45,-15 -54,-32 -17,-29 -4,-72 32,-117 -52,-57 -75,-114 -53,-151 11,-19 32,-31 60,-35 -22,5 -38,16 -47,31 -20,36 1,89 49,143 19,-21 43,-43 70,-64 4,-33 10,-64 18,-91 -54,-8 -95,2 -112,30 -8,14 -8,31 -3,50 -9,-24 -10,-45 0,-62 17,-30 62,-39 119,-31 23,-73 61,-120 104,-120 22,0 42,12 60,35 -15,-17 -32,-25 -51,-25 -40,0 -76,44 -99,113 28,5 59,14 90,28 31,-13 62,-23 89,-28 -20,-51 -49,-83 -82,-83 -16,0 -31,8 -45,23 16,-20 34,-32 54,-32 34,0 65,35 86,89 59,-9 104,0 122,30 12,21 8,50 -8,81 11,-26 13,-50 2,-68 -16,-27 -57,-37 -111,-29 9,26 16,57 20,90 28,20 51,42 70,63zm-290 173c24,-6 50,-14 76,-25 -16,-8 -32,-16 -48,-25 -15,-9 -30,-18 -44,-28 4,28 9,54 16,78zm-16 -248c3,-28 9,-54 16,-77 24,5 50,12 77,23 -16,8 -33,16 -49,25 -16,10 -30,19 -44,29zm126 -54c27,-10 53,-18 77,-22 8,23 15,49 19,77 -15,-10 -31,-20 -47,-30 -16,-9 -33,-17 -49,-25zm-204 140c16,-19 36,-38 60,-57 -2,19 -3,38 -3,57 1,18 1,36 3,53 -23,-17 -43,-35 -60,-53z"/>
  <path class="fil2" d="M2203 1631l-310 157 0 362 310 157 311 -157 0 -362 -311 -157zm-328 139l328 -166 335 169 0 391c-111,57 -223,113 -335,170 -111,-57 -223,-113 -334,-170l0 -391 6 -3z"/>
  <path class="fil4" d="M2874 4580l0 -141 80 0 0 12 -67 0 0 50 59 0 0 12 -59 0 0 67 -13 0zm560 -101c4,-1 9,-3 16,-4 7,-1 15,-2 24,-2 8,0 15,1 20,4 6,2 10,5 13,9 3,5 6,10 7,16 1,6 2,12 2,19l0 59 -13 0 0 -54c0,-8 -1,-14 -2,-19 -1,-5 -3,-10 -5,-13 -2,-3 -5,-5 -9,-7 -4,-1 -9,-2 -15,-2 -6,0 -11,0 -16,1 -4,1 -7,1 -9,2l0 92 -13 0 0 -101zm-14 49c0,8 -2,15 -4,22 -2,7 -6,13 -10,17 -4,5 -9,9 -15,12 -6,2 -12,3 -19,3 -7,0 -14,-1 -20,-3 -5,-3 -10,-7 -15,-12 -4,-4 -7,-10 -10,-17 -2,-7 -3,-14 -3,-22 0,-9 1,-16 3,-23 3,-7 6,-12 10,-17 5,-5 10,-9 15,-11 6,-3 13,-4 20,-4 7,0 13,1 19,4 6,2 11,6 15,11 4,5 8,10 10,17 2,7 4,14 4,23zm-14 0c0,-13 -3,-24 -9,-32 -7,-7 -15,-11 -25,-11 -11,0 -19,4 -25,11 -6,8 -9,19 -9,32 0,13 3,23 9,31 6,8 14,12 25,12 10,0 18,-4 25,-12 6,-8 9,-18 9,-31zm-99 52l-13 0 0 -105 13 0 0 105zm3 -137c0,4 -1,6 -2,8 -2,2 -5,3 -7,3 -3,0 -5,-1 -7,-3 -2,-2 -3,-4 -3,-8 0,-3 1,-5 3,-7 2,-2 4,-3 7,-3 2,0 5,1 7,3 1,2 2,4 2,7zm-177 36c4,-1 9,-3 16,-4 6,-1 14,-2 24,-2 13,0 23,4 29,12 1,-1 2,-2 4,-3 2,-1 4,-3 7,-4 3,-1 7,-3 11,-4 4,0 8,-1 13,-1 8,0 14,1 19,4 5,2 9,5 12,10 3,4 4,9 5,15 1,6 2,12 2,19l0 59 -13 0 0 -54c0,-7 -1,-13 -1,-18 -1,-5 -2,-10 -4,-13 -2,-3 -4,-6 -8,-7 -3,-2 -8,-3 -13,-3 -4,0 -8,0 -11,1 -3,1 -6,2 -9,3 -2,1 -4,2 -6,3 -1,1 -2,2 -3,3 1,3 2,7 3,11 0,5 1,9 1,14l0 60 -14 0 0 -54c0,-7 0,-13 -1,-18 0,-5 -1,-10 -3,-13 -2,-3 -5,-6 -8,-7 -4,-2 -8,-3 -14,-3 -6,0 -12,0 -16,1 -5,1 -7,1 -9,2l0 92 -13 0 0 -101zm-30 -6c4,0 9,0 12,1 4,1 7,1 8,2l-2 11c-1,0 -4,-1 -7,-1 -3,-1 -8,-1 -13,-1 -6,0 -10,0 -14,1 -3,1 -5,2 -6,2l0 92 -14 0 0 -100c4,-2 8,-3 14,-5 6,-1 14,-2 22,-2zm-141 54c0,-9 1,-17 4,-24 3,-6 6,-12 10,-17 5,-4 9,-8 15,-10 5,-2 11,-3 17,-3 13,0 23,4 31,12 7,9 11,22 11,39 0,1 0,2 0,3 0,1 0,2 0,3l-74 0c0,13 4,23 10,30 5,7 15,10 28,10 7,0 13,0 17,-2 4,-1 7,-2 9,-3l3 11c-2,1 -6,3 -11,4 -5,2 -11,2 -18,2 -10,0 -18,-1 -24,-4 -7,-2 -12,-6 -16,-11 -4,-5 -7,-11 -9,-17 -2,-7 -3,-15 -3,-23zm74 -8c0,-11 -2,-19 -7,-25 -5,-7 -12,-10 -21,-10 -5,0 -9,1 -13,3 -3,2 -7,5 -9,8 -3,3 -5,7 -7,11 -1,4 -2,9 -3,13l60 0z"/>
  <path class="fil5" d="M2690 4513c0,11 -1,22 -2,32 -9,7 -19,14 -29,20 -10,5 -20,10 -29,15 -10,-5 -21,-10 -31,-16 -9,-5 -18,-11 -27,-17 -1,-11 -2,-22 -2,-34 0,-12 1,-23 2,-34 8,-6 17,-12 27,-18 10,-6 20,-11 31,-15 9,4 19,9 29,14 10,7 20,13 29,20 1,10 2,21 2,33zm-48 -7c4,7 2,16 -5,20 -7,4 -16,2 -20,-5 -4,-7 -2,-16 5,-20 7,-4 16,-2 20,5zm45 50c-2,15 -6,28 -10,40 -12,-3 -25,-7 -38,-12 8,-4 16,-8 24,-13 8,-5 16,-10 24,-15zm9 -16c11,-9 21,-18 29,-26 -8,-10 -18,-20 -30,-29 1,9 2,19 2,29 0,9 -1,17 -1,26zm34 -32c24,-27 34,-54 24,-72 -6,-10 -18,-16 -35,-18 21,1 36,7 43,19 11,19 -1,48 -27,77 18,23 25,45 16,60 -6,11 -19,17 -37,18 14,-2 25,-7 30,-17 8,-14 2,-34 -14,-55 -10,10 -22,20 -35,30 -2,18 -6,34 -11,48 36,7 64,2 74,-16 6,-10 5,-24 -1,-39 9,18 11,35 4,47 -10,19 -41,23 -79,15 -11,28 -27,45 -44,45 -13,0 -25,-9 -34,-24 8,11 18,18 29,18 16,0 31,-15 41,-41 -14,-3 -29,-8 -44,-15 -16,7 -32,12 -46,16 12,34 30,56 50,56 12,0 24,-8 33,-21 -11,17 -24,27 -38,27 -21,0 -41,-24 -53,-60 -37,7 -67,3 -78,-16 -6,-10 -6,-22 0,-36 -4,11 -3,21 2,29 10,18 38,23 74,15 -4,-14 -7,-30 -9,-47 -14,-10 -26,-21 -36,-31 -17,21 -23,42 -15,56 4,7 11,12 21,15 -13,-2 -22,-8 -27,-16 -9,-15 -2,-37 16,-60 -27,-30 -38,-59 -27,-78 6,-9 16,-15 31,-18 -11,3 -20,9 -24,17 -11,18 0,45 25,73 10,-11 22,-23 36,-33 2,-17 5,-33 9,-47 -28,-4 -49,1 -57,15 -4,8 -5,16 -2,26 -5,-12 -5,-23 0,-32 9,-15 32,-20 61,-15 12,-38 31,-62 53,-62 11,0 22,6 31,18 -8,-8 -17,-13 -26,-13 -21,0 -39,23 -51,58 15,3 30,7 46,14 16,-6 32,-11 46,-14 -11,-26 -26,-42 -42,-42 -8,0 -16,4 -23,11 8,-10 17,-16 27,-16 18,0 34,18 45,46 29,-5 53,0 62,15 6,11 4,25 -5,41 6,-13 7,-25 2,-34 -8,-14 -30,-19 -57,-15 5,13 8,29 10,46 14,10 26,21 36,32zm-148 89c12,-3 25,-8 38,-13 -8,-4 -16,-8 -24,-13 -8,-5 -15,-9 -23,-14 2,14 5,27 9,40zm-9 -127c2,-15 5,-28 8,-40 13,3 26,7 40,12 -8,4 -17,8 -25,13 -8,5 -16,10 -23,15zm65 -28c14,-5 27,-9 39,-11 4,11 8,25 10,39 -8,-5 -16,-10 -24,-15 -8,-5 -17,-9 -25,-13zm-105 72c9,-10 19,-20 31,-29 -1,9 -1,19 -1,29 0,9 0,18 1,27 -12,-9 -22,-18 -31,-27z"/>
  <path class="fil5" d="M2629 4341l-159 80 0 185 159 81 160 -81 0 -185 -160 -80zm-168 71l168 -85 172 86 0 201c-57,29 -114,58 -172,86 -57,-28 -114,-57 -171,-86l0 -201 3 -1z"/>
  <path class="fil4" d="M2874 5744l0 -141 80 0 0 12 -67 0 0 50 59 0 0 12 -59 0 0 67 -13 0zm560 -102c4,-1 9,-2 16,-3 7,-2 15,-2 24,-2 8,0 15,1 20,3 6,3 10,6 13,10 3,4 6,9 7,15 1,6 2,13 2,20l0 59 -13 0 0 -55c0,-7 -1,-13 -2,-19 -1,-5 -3,-9 -5,-12 -2,-3 -5,-6 -9,-7 -4,-2 -9,-2 -15,-2 -6,0 -11,0 -16,1 -4,0 -7,1 -9,2l0 92 -13 0 0 -102zm-14 49c0,9 -2,16 -4,23 -2,7 -6,12 -10,17 -4,5 -9,9 -15,11 -6,3 -12,4 -19,4 -7,0 -14,-1 -20,-4 -5,-2 -10,-6 -15,-11 -4,-5 -7,-10 -10,-17 -2,-7 -3,-14 -3,-23 0,-8 1,-15 3,-22 3,-7 6,-13 10,-17 5,-5 10,-9 15,-12 6,-2 13,-4 20,-4 7,0 13,2 19,4 6,3 11,7 15,12 4,4 8,10 10,17 2,7 4,14 4,22zm-14 0c0,-13 -3,-23 -9,-31 -7,-8 -15,-12 -25,-12 -11,0 -19,4 -25,12 -6,8 -9,18 -9,31 0,14 3,24 9,32 6,7 14,11 25,11 10,0 18,-4 25,-11 6,-8 9,-18 9,-32zm-99 53l-13 0 0 -105 13 0 0 105zm3 -137c0,3 -1,6 -2,8 -2,1 -5,2 -7,2 -3,0 -5,-1 -7,-2 -2,-2 -3,-5 -3,-8 0,-3 1,-5 3,-7 2,-2 4,-3 7,-3 2,0 5,1 7,3 1,2 2,4 2,7zm-177 35c4,-1 9,-2 16,-3 6,-2 14,-2 24,-2 13,0 23,4 29,11 1,0 2,-1 4,-2 2,-2 4,-3 7,-4 3,-2 7,-3 11,-4 4,-1 8,-1 13,-1 8,0 14,1 19,3 5,3 9,6 12,10 3,5 4,10 5,16 1,6 2,12 2,19l0 59 -13 0 0 -55c0,-7 -1,-13 -1,-18 -1,-5 -2,-9 -4,-12 -2,-3 -4,-6 -8,-8 -3,-1 -8,-2 -13,-2 -4,0 -8,0 -11,1 -3,1 -6,2 -9,3 -2,1 -4,2 -6,3 -1,1 -2,2 -3,2 1,4 2,8 3,12 0,5 1,9 1,14l0 60 -14 0 0 -55c0,-7 0,-13 -1,-18 0,-5 -1,-9 -3,-12 -2,-3 -5,-6 -8,-8 -4,-1 -8,-2 -14,-2 -6,0 -12,0 -16,1 -5,0 -7,1 -9,2l0 92 -13 0 0 -102zm-30 -5c4,0 9,0 12,1 4,0 7,1 8,2l-2 11c-1,0 -4,-1 -7,-2 -3,0 -8,0 -13,0 -6,0 -10,0 -14,1 -3,1 -5,1 -6,2l0 92 -14 0 0 -100c4,-2 8,-3 14,-5 6,-1 14,-2 22,-2zm-141 54c0,-9 1,-17 4,-24 3,-7 6,-12 10,-17 5,-5 9,-8 15,-10 5,-3 11,-4 17,-4 13,0 23,5 31,13 7,8 11,21 11,39 0,1 0,2 0,3 0,1 0,2 0,3l-74 0c0,13 4,23 10,30 5,7 15,10 28,10 7,0 13,-1 17,-2 4,-1 7,-2 9,-3l3 11c-2,1 -6,2 -11,4 -5,1 -11,2 -18,2 -10,0 -18,-1 -24,-4 -7,-3 -12,-7 -16,-11 -4,-5 -7,-11 -9,-18 -2,-6 -3,-14 -3,-22zm74 -8c0,-11 -2,-20 -7,-26 -5,-6 -12,-9 -21,-9 -5,0 -9,1 -13,3 -3,2 -7,4 -9,8 -3,3 -5,6 -7,11 -1,4 -2,8 -3,13l60 0z"/>
  <path class="fil5" d="M2690 5677c0,11 -1,22 -2,32 -9,7 -19,13 -29,20 -10,5 -20,10 -29,14 -10,-4 -21,-9 -31,-15 -9,-6 -18,-11 -27,-17 -1,-11 -2,-23 -2,-34 0,-12 1,-24 2,-35 8,-6 17,-12 27,-17 10,-6 20,-11 31,-16 9,5 19,10 29,15 10,6 20,13 29,19 1,11 2,22 2,34zm-48 -7c4,7 2,16 -5,20 -7,4 -16,1 -20,-6 -4,-7 -2,-16 5,-20 7,-4 16,-1 20,6zm45 49c-2,15 -6,29 -10,41 -12,-3 -25,-7 -38,-13 8,-3 16,-8 24,-12 8,-5 16,-10 24,-16zm9 -15c11,-9 21,-18 29,-27 -8,-9 -18,-19 -30,-28 1,9 2,19 2,28 0,9 -1,18 -1,27zm34 -32c24,-28 34,-55 24,-72 -6,-11 -18,-17 -35,-18 21,0 36,7 43,19 11,19 -1,48 -27,77 18,23 25,45 16,60 -6,11 -19,17 -37,17 14,-1 25,-7 30,-16 8,-14 2,-34 -14,-56 -10,11 -22,21 -35,31 -2,17 -6,33 -11,47 36,7 64,3 74,-15 6,-11 5,-24 -1,-39 9,18 11,34 4,46 -10,19 -41,24 -79,16 -11,27 -27,45 -44,45 -13,0 -25,-9 -34,-25 8,12 18,19 29,19 16,0 31,-16 41,-41 -14,-3 -29,-8 -44,-15 -16,7 -32,12 -46,15 12,35 30,57 50,57 12,0 24,-8 33,-21 -11,17 -24,27 -38,27 -21,0 -41,-24 -53,-61 -37,8 -67,3 -78,-15 -6,-10 -6,-22 0,-36 -4,11 -3,21 2,29 10,18 38,22 74,15 -4,-14 -7,-30 -9,-47 -14,-11 -26,-21 -36,-32 -17,22 -23,43 -15,57 4,7 11,12 21,14 -13,-2 -22,-7 -27,-16 -9,-15 -2,-37 16,-60 -27,-29 -38,-58 -27,-77 6,-10 16,-16 31,-18 -11,3 -20,8 -24,16 -11,18 0,46 25,74 10,-12 22,-23 36,-34 2,-16 5,-32 9,-46 -28,-4 -49,1 -57,15 -4,7 -5,16 -2,26 -5,-12 -5,-23 0,-32 9,-15 32,-20 61,-16 12,-37 31,-61 53,-61 11,0 22,6 31,18 -8,-9 -17,-13 -26,-13 -21,0 -39,22 -51,58 15,2 30,7 46,14 16,-7 32,-12 46,-14 -11,-26 -26,-43 -42,-43 -8,0 -16,5 -23,12 8,-10 17,-16 27,-16 18,0 34,17 45,45 29,-4 53,0 62,16 6,11 4,25 -5,41 6,-13 7,-25 2,-35 -8,-14 -30,-19 -57,-15 5,14 8,30 10,47 14,10 26,21 36,32zm-148 88c12,-3 25,-7 38,-12 -8,-4 -16,-9 -24,-13 -8,-5 -15,-10 -23,-15 2,15 5,28 9,40zm-9 -127c2,-14 5,-27 8,-39 13,2 26,6 40,12 -8,4 -17,8 -25,13 -8,4 -16,9 -23,14zm65 -27c14,-6 27,-9 39,-12 4,12 8,25 10,40 -8,-5 -16,-10 -24,-15 -8,-5 -17,-9 -25,-13zm-105 71c9,-9 19,-19 31,-29 -1,10 -1,20 -1,29 0,10 0,19 1,27 -12,-8 -22,-17 -31,-27z"/>
  <path class="fil5" d="M2629 5504l-159 81 0 185 159 80 160 -80 0 -185 -160 -81zm-168 71l168 -85 172 87 0 200c-57,29 -114,58 -172,87 -57,-29 -114,-58 -171,-87l0 -200 3 -2z"/>
  <path class="fil6" d="M3738 7279l0 -211 120 0 0 18 -100 0 0 75 88 0 0 18 -88 0 0 100 -20 0zm840 -152c5,-1 13,-3 23,-5 10,-2 22,-3 37,-3 12,0 22,2 30,5 8,4 14,9 19,15 5,6 8,14 10,23 2,9 3,19 3,29l0 88 -20 0 0 -81c0,-11 0,-21 -2,-29 -1,-7 -4,-14 -8,-18 -3,-5 -8,-9 -14,-11 -5,-2 -13,-3 -21,-3 -10,0 -18,0 -24,1 -7,1 -12,2 -14,3l0 138 -19 0 0 -152zm-22 74c0,12 -2,23 -5,34 -4,10 -9,18 -15,25 -7,8 -14,13 -23,17 -9,4 -18,6 -29,6 -10,0 -20,-2 -29,-6 -9,-4 -16,-9 -22,-17 -7,-7 -12,-15 -15,-25 -4,-11 -6,-22 -6,-34 0,-13 2,-24 6,-34 3,-10 8,-19 15,-26 6,-7 13,-13 22,-17 9,-4 19,-6 29,-6 11,0 20,2 29,6 9,4 16,10 23,17 6,7 11,16 15,26 3,10 5,21 5,34zm-21 0c0,-20 -5,-36 -14,-47 -9,-12 -21,-18 -37,-18 -16,0 -28,6 -37,18 -9,11 -14,27 -14,47 0,19 5,35 14,47 9,11 21,17 37,17 16,0 28,-6 37,-17 9,-12 14,-28 14,-47zm-147 78l-20 0 0 -157 20 0 0 157zm4 -204c0,4 -1,8 -4,11 -3,2 -6,4 -10,4 -4,0 -8,-2 -11,-4 -3,-3 -4,-7 -4,-11 0,-5 1,-9 4,-12 3,-2 7,-4 11,-4 4,0 7,2 10,4 3,3 4,7 4,12zm-265 52c6,-1 13,-3 23,-5 9,-2 21,-3 36,-3 20,0 35,6 44,17 1,0 3,-2 5,-4 3,-2 7,-4 12,-6 4,-2 9,-3 15,-5 6,-1 13,-2 20,-2 12,0 22,2 29,5 8,4 13,9 17,15 4,7 7,14 9,23 1,9 2,19 2,29l0 88 -20 0 0 -81c0,-11 0,-20 -1,-27 -1,-8 -3,-14 -6,-19 -3,-5 -6,-9 -12,-11 -5,-3 -11,-4 -19,-4 -6,0 -12,0 -17,2 -5,1 -9,2 -13,4 -3,1 -6,3 -9,5 -2,1 -4,2 -5,3 2,5 3,11 4,18 1,7 2,14 2,21l0 89 -20 0 0 -81c0,-11 -1,-20 -2,-27 0,-8 -2,-14 -5,-19 -3,-5 -7,-9 -12,-11 -5,-3 -12,-4 -21,-4 -9,0 -17,0 -24,1 -6,1 -11,2 -13,3l0 138 -19 0 0 -152zm-45 -8c6,0 12,0 18,1 6,2 10,3 12,4l-4 17c-2,-1 -5,-2 -10,-3 -5,-1 -11,-1 -20,-1 -8,0 -15,0 -20,1 -5,2 -9,3 -10,3l0 138 -20 0 0 -150c5,-2 12,-4 21,-7 9,-2 20,-3 33,-3zm-212 82c0,-14 2,-26 6,-37 4,-10 9,-18 16,-25 6,-7 13,-12 21,-16 9,-3 17,-5 26,-5 19,0 34,7 46,19 11,13 17,32 17,58 0,2 0,4 0,5 0,2 0,3 -1,5l-110 0c1,19 5,34 14,44 9,11 23,16 43,16 11,0 19,-1 26,-3 6,-2 10,-4 13,-6l4 18c-3,1 -8,3 -16,5 -8,3 -17,4 -28,4 -13,0 -25,-2 -35,-6 -10,-4 -18,-10 -24,-17 -6,-8 -11,-16 -14,-26 -3,-11 -4,-22 -4,-33zm112 -13c-1,-16 -5,-29 -12,-38 -7,-9 -17,-14 -31,-14 -7,0 -13,1 -19,4 -5,3 -10,7 -14,12 -5,4 -8,10 -10,16 -3,7 -4,13 -4,20l90 0z"/>
  <path class="fil7" d="M3463 7179c0,17 -1,33 -3,48 -14,11 -29,20 -44,29 -15,9 -29,16 -44,23 -15,-7 -30,-15 -46,-23 -14,-9 -27,-18 -40,-27 -2,-16 -3,-33 -3,-50 0,-18 1,-35 3,-52 12,-9 26,-18 40,-26 15,-9 31,-17 46,-23 14,6 29,14 44,22 16,9 30,19 44,29 2,16 3,32 3,50zm-72 -11c6,11 3,24 -8,30 -10,6 -24,3 -30,-8 -6,-10 -2,-24 8,-30 11,-6 24,-2 30,8zm67 75c-3,22 -8,42 -15,60 -18,-4 -37,-10 -57,-18 12,-6 24,-12 36,-19 13,-8 25,-15 36,-23zm13 -24c17,-13 31,-26 44,-39 -12,-15 -27,-29 -44,-43 1,14 2,28 2,43 0,13 -1,26 -2,39zm51 -47c36,-42 52,-82 36,-109 -9,-15 -27,-24 -52,-26 31,1 54,10 64,28 17,28 0,72 -40,116 27,34 38,67 25,90 -10,16 -30,25 -57,25 22,-2 38,-10 46,-24 12,-21 3,-51 -22,-83 -15,15 -32,31 -53,46 -3,26 -8,50 -15,71 53,10 96,3 111,-24 9,-15 7,-35 -3,-58 15,27 18,52 7,70 -16,28 -62,35 -119,23 -16,41 -40,67 -66,67 -19,0 -36,-13 -51,-36 13,17 28,28 44,28 25,-1 47,-24 62,-62 -21,-5 -44,-13 -67,-23 -24,11 -47,18 -68,24 17,51 45,84 75,84 18,0 35,-12 49,-32 -16,26 -35,41 -56,41 -33,0 -62,-35 -80,-91 -56,12 -101,5 -118,-23 -8,-14 -8,-33 0,-54 -5,17 -4,32 3,44 16,27 58,33 112,23 -6,-22 -11,-46 -14,-72 -21,-15 -39,-30 -54,-46 -25,32 -35,63 -23,85 7,10 18,18 33,21 -20,-3 -34,-11 -42,-24 -13,-22 -2,-55 25,-90 -40,-44 -57,-87 -41,-115 9,-15 25,-24 47,-28 -17,5 -30,13 -37,25 -15,27 1,68 38,109 15,-16 33,-33 54,-49 3,-25 7,-49 13,-70 -41,-6 -73,2 -85,23 -6,11 -7,24 -3,39 -7,-18 -7,-35 0,-48 13,-23 48,-30 91,-24 18,-56 47,-92 80,-92 17,0 33,10 47,27 -12,-13 -25,-19 -39,-19 -31,0 -59,34 -76,86 21,4 45,12 69,22 23,-10 47,-17 68,-22 -16,-39 -38,-63 -63,-63 -13,0 -24,6 -35,17 12,-15 27,-24 42,-24 26,0 50,27 66,68 45,-7 80,1 93,23 9,17 6,39 -6,63 9,-20 10,-39 2,-52 -13,-22 -44,-29 -85,-23 7,20 12,44 15,69 21,16 39,32 53,49zm-222 132c19,-4 38,-11 58,-19 -12,-6 -24,-12 -36,-19 -12,-7 -24,-14 -34,-22 3,22 7,42 12,60zm-13 -190c3,-21 7,-41 13,-59 18,3 38,9 59,17 -12,6 -25,13 -37,20 -12,7 -24,14 -35,22zm98 -41c20,-8 40,-14 59,-18 6,18 11,38 14,60 -11,-8 -23,-16 -36,-23 -13,-7 -25,-14 -37,-19zm-157 107c12,-15 28,-29 46,-44 -1,14 -2,29 -2,44 0,14 1,27 2,40 -18,-13 -33,-26 -46,-40z"/>
  <path class="fil7" d="M3372 6920l-239 121 0 278 239 120 238 -120 0 -278 -238 -121zm-252 107l252 -127 257 130 0 300c-86,43 -172,86 -257,130 -86,-44 -172,-87 -257,-130l0 -300 5 -3z"/>
  <path class="fil0" d="M1042 7178c0,23 -1,45 -4,65 -18,14 -38,27 -59,39 -19,11 -39,21 -58,30 -20,-9 -40,-19 -61,-31 -19,-11 -37,-23 -54,-35 -2,-22 -4,-44 -4,-68 0,-23 2,-46 4,-68 16,-13 34,-24 53,-35 21,-12 42,-23 62,-31 19,8 39,18 59,29 21,12 40,25 58,39 3,21 4,43 4,66zm-96 -14c8,14 4,32 -10,40 -14,9 -32,4 -40,-10 -8,-14 -4,-32 10,-40 14,-8 32,-4 40,10zm90 100c-5,30 -11,57 -20,81 -24,-6 -50,-14 -76,-25 16,-8 32,-16 48,-26 17,-9 33,-19 48,-30zm17 -32c22,-17 42,-35 59,-52 -16,-19 -36,-39 -59,-57 1,18 2,37 2,57 0,18 0,35 -2,52zm68 -63c49,-55 69,-109 48,-145 -12,-20 -36,-32 -69,-36 41,2 71,14 86,39 22,38 -1,96 -54,154 36,46 50,90 33,120 -13,22 -40,33 -76,35 29,-3 51,-14 61,-33 17,-28 4,-68 -28,-111 -20,21 -44,41 -71,61 -4,35 -11,67 -21,95 72,14 128,4 149,-31 12,-21 10,-48 -4,-78 19,36 24,69 10,93 -22,38 -83,47 -160,31 -22,55 -53,90 -88,90 -25,0 -48,-18 -68,-49 18,24 38,37 59,37 33,0 62,-31 83,-81 -29,-7 -59,-18 -90,-31 -32,13 -62,24 -91,31 23,68 60,112 100,112 24,0 47,-15 66,-42 -21,35 -47,55 -76,55 -43,0 -81,-48 -106,-121 -75,15 -135,6 -157,-31 -11,-20 -11,-45 0,-72 -7,22 -6,42 4,58 20,35 77,45 149,30 -9,-28 -15,-61 -19,-95 -27,-20 -51,-41 -72,-62 -34,43 -46,85 -30,113 8,15 23,24 43,29 -26,-4 -45,-15 -55,-32 -18,-30 -4,-74 33,-120 -54,-59 -76,-117 -55,-155 12,-19 33,-31 62,-36 -22,6 -39,16 -48,33 -21,36 1,90 50,146 20,-22 44,-45 72,-66 4,-34 10,-65 18,-93 -55,-8 -97,2 -114,30 -8,15 -9,32 -3,52 -10,-24 -10,-47 0,-64 17,-30 63,-40 121,-31 24,-75 63,-124 107,-124 22,0 43,13 62,36 -16,-16 -34,-26 -52,-26 -42,0 -78,46 -102,116 29,6 60,15 92,29 32,-13 63,-23 91,-29 -21,-52 -50,-84 -84,-84 -16,0 -32,8 -46,23 16,-21 35,-32 55,-32 36,0 67,35 89,91 60,-10 106,0 124,30 13,22 9,51 -8,83 12,-26 13,-50 3,-69 -17,-29 -59,-38 -114,-30 9,27 16,58 21,92 27,21 51,43 70,65zm-296 177c25,-6 51,-15 77,-26 -16,-7 -32,-16 -48,-25 -16,-10 -31,-19 -46,-29 4,29 10,56 17,80zm-17 -254c4,-29 9,-55 16,-79 25,5 52,13 80,24 -17,7 -34,16 -50,26 -16,9 -32,19 -46,29zm130 -55c27,-11 54,-19 78,-23 9,23 15,50 20,79 -15,-11 -32,-21 -48,-31 -17,-9 -34,-18 -50,-25zm-209 143c16,-19 37,-39 61,-58 -2,19 -3,38 -3,58 0,18 1,36 3,54 -23,-17 -44,-36 -61,-54z"/>
  <path class="fil0" d="M921 6833l-319 161 0 371 319 161 318 -161 0 -371 -318 -161zm-337 143l337 -170 343 173 0 401c-115,58 -229,116 -343,174 -115,-58 -229,-116 -344,-174l0 -401 7 -3z"/>
 </g>
</svg>
